<?xml version="1.0" encoding="utf-8"?>
<!-- Svg Vector Icons : http://www.onlinewebfonts.com/icon -->
<!DOCTYPE svg PUBLIC "-//W3C//DTD SVG 1.1//EN" "http://www.w3.org/Graphics/SVG/1.1/DTD/svg11.dtd">
<svg version="1.1" xmlns="http://www.w3.org/2000/svg" xmlns:xlink="http://www.w3.org/1999/xlink" x="0px" y="0px" viewBox="0 0 1000 1000" enable-background="new 0 0 1000 1000" xml:space="preserve">
<metadata> Svg Vector Icons : http://www.onlinewebfonts.com/icon </metadata>
<g><g transform="translate(0.000000,511.000000) scale(0.100000,-0.100000)"><path d="M5056.7,4662.1c0-1.9,86.5-322.9,190.3-711.1c198-738,221-795.7,344-878.3c130.7-90.3,211.4-80.7,945.6,113.4c365.2,98,678.4,182.6,699.6,190.3c26.9,11.5-109.6,98-586.2,372.9c-342.1,196-841.8,482.4-1107.1,636.2C5275.8,4539.1,5056.7,4664,5056.7,4662.1z"/><path d="M3292.3,4197c-1037.8-278.7-1545.2-422.8-1587.5-453.6c-99.9-69.2-151.8-159.5-161.4-284.4c-7.7-96.1,32.7-259.5,301.7-1262.7c171-634.2,309.4-1157,309.4-1164.7c0-5.8-84.6-15.4-186.4-19.2c-211.4-9.6-297.9-40.4-399.8-144.1c-32.7-34.6-75-96.1-92.3-134.5c-28.8-67.3-1347.3-4676.1-1372.3-4797.2c-26.9-128.8,109.6-317.1,257.5-357.5c50-15.4,1318.4-21.1,3999.6-21.1c3505.6,0,3934.2,3.8,3997.6,30.7c121.1,50,234.5,182.6,234.5,272.9c0,21.2,203.7,759.2,453.6,1639.4c247.9,882.2,542,1921.9,653.5,2312.1C9836.6,301.2,9900,553,9900,620.3c-1.9,173-80.7,290.2-242.2,361.3c-40.4,17.3-280.6,26.9-901.4,34.6l-843.7,9.6L7634,2063.6c-151.8,570.8-278.7,1039.8-280.6,1043.6c-1.9,1.9-161.4-36.5-353.6-86.5c-242.2-65.3-347.9-99.9-347.9-119.2c0-21.1,453.6-1725.9,492-1850.8c9.6-32.7-99.9-34.6-2104.5-34.6H2925.3l-19.2,73c-11.5,38.4-136.5,507.4-280.6,1039.8c-142.2,532.4-259.5,984-259.5,1003.3s15.4,44.2,36.5,53.8c19.2,11.5,609.3,173,1310.8,359.4c701.5,186.4,1283.9,345.9,1293.5,353.6c15.4,15.4-161.4,713-180.7,709.2C4820.3,4606.4,4130.3,4421.9,3292.3,4197z"/><path d="M3951.6,2967c-780.3-209.5-887.9-242.2-926.4-288.3c-51.9-59.6-55.7-105.7-13.5-226.8c34.6-101.9,86.5-148,163.4-148c51.9,0,1672.1,424.8,1773.9,465.1c55.7,23.1,115.3,124.9,98,173c-3.9,13.5-17.3,61.5-28.8,107.6c-15.4,59.6-38.4,92.3-82.6,119.2c-34.6,21.1-69.2,38.4-80.7,36.5C4845.3,3205.3,4437.8,3097.6,3951.6,2967z"/><path d="M4643.5,2332.7c-1487.6-399.8-1451.1-386.3-1451.1-513.2c0-153.8,84.6-284.4,184.5-284.4c23.1,0,672.7,169.1,1443.4,374.8c1504.9,401.7,1466.5,388.2,1466.5,517c0,171-76.9,282.5-190.3,278.7C6058,2705.6,5404.6,2536.4,4643.5,2332.7z"/><path d="M280.7,2448c-42.3-25-98-78.8-124.9-117.2l-48-73l-3.8-2479.3L100-2702.8L638.1-828.9c436.3,1524.1,545.8,1887.4,592,1950.8c75,103.8,226.8,182.6,349.8,182.6c63.4,0,94.2,7.7,94.2,25c0,11.5-71.1,280.6-157.6,595.8l-159.5,570.8H857.2C361.4,2496.1,357.5,2496.1,280.7,2448z"/><path d="M8020.3,1877.2c5.8-13.4,50-148,100-299.8l92.2-274.8l194.1,5.8l196.1,5.8l5.7,80.7c9.6,126.8-28.8,292.1-84.5,365.2c-78.8,101.9-173,140.3-355.6,140.3C8051.1,1900.3,8014.6,1894.5,8020.3,1877.2z"/></g></g>
</svg>